<svg width="134" height="24" viewBox="0 0 134 24" fill="none" xmlns="http://www.w3.org/2000/svg">
<path d="M8.208 21.36C6.928 21.36 5.772 21.136 4.74 20.688C3.716 20.232 2.872 19.584 2.208 18.744C1.552 17.896 1.136 16.888 0.96 15.72L4.368 15.216C4.608 16.208 5.104 16.972 5.856 17.508C6.608 18.044 7.464 18.312 8.424 18.312C8.96 18.312 9.48 18.228 9.984 18.06C10.488 17.892 10.9 17.644 11.22 17.316C11.548 16.988 11.712 16.584 11.712 16.104C11.712 15.928 11.684 15.76 11.628 15.6C11.58 15.432 11.496 15.276 11.376 15.132C11.256 14.988 11.084 14.852 10.86 14.724C10.644 14.596 10.368 14.48 10.032 14.376L5.544 13.056C5.208 12.96 4.816 12.824 4.368 12.648C3.928 12.472 3.5 12.22 3.084 11.892C2.668 11.564 2.32 11.132 2.04 10.596C1.768 10.052 1.632 9.368 1.632 8.544C1.632 7.384 1.924 6.42 2.508 5.652C3.092 4.884 3.872 4.312 4.848 3.936C5.824 3.56 6.904 3.376 8.088 3.384C9.28 3.4 10.344 3.604 11.28 3.996C12.216 4.388 13 4.96 13.632 5.712C14.264 6.456 14.72 7.368 15 8.448L11.472 9.048C11.344 8.488 11.108 8.016 10.764 7.632C10.42 7.248 10.008 6.956 9.528 6.756C9.056 6.556 8.56 6.448 8.04 6.432C7.528 6.416 7.044 6.488 6.588 6.648C6.14 6.8 5.772 7.024 5.484 7.32C5.204 7.616 5.064 7.968 5.064 8.376C5.064 8.752 5.18 9.06 5.412 9.3C5.644 9.532 5.936 9.72 6.288 9.864C6.64 10.008 7 10.128 7.368 10.224L10.368 11.04C10.816 11.16 11.312 11.32 11.856 11.52C12.4 11.712 12.92 11.984 13.416 12.336C13.92 12.68 14.332 13.136 14.652 13.704C14.98 14.272 15.144 14.992 15.144 15.864C15.144 16.792 14.948 17.604 14.556 18.3C14.172 18.988 13.652 19.56 12.996 20.016C12.34 20.464 11.596 20.8 10.764 21.024C9.94 21.248 9.088 21.36 8.208 21.36ZM24.8136 21.36C23.4216 21.36 22.1976 21.08 21.1416 20.52C20.0856 19.952 19.2616 19.156 18.6696 18.132C18.0776 17.108 17.7816 15.904 17.7816 14.52V3.744L21.0936 3.72V14.496C21.0936 15.064 21.1896 15.58 21.3816 16.044C21.5736 16.508 21.8376 16.908 22.1736 17.244C22.5176 17.58 22.9136 17.84 23.3616 18.024C23.8176 18.2 24.3016 18.288 24.8136 18.288C25.3416 18.288 25.8296 18.196 26.2776 18.012C26.7336 17.828 27.1296 17.568 27.4656 17.232C27.8016 16.896 28.0616 16.496 28.2456 16.032C28.4376 15.568 28.5336 15.056 28.5336 14.496V3.72H31.8456V14.52C31.8456 15.904 31.5496 17.108 30.9576 18.132C30.3656 19.156 29.5416 19.952 28.4856 20.52C27.4296 21.08 26.2056 21.36 24.8136 21.36ZM35.1956 21V3.72H42.1076C43.3396 3.72 44.3356 3.968 45.0956 4.464C45.8556 4.952 46.4116 5.568 46.7636 6.312C47.1156 7.056 47.2916 7.808 47.2916 8.568C47.2916 9.536 47.0716 10.34 46.6316 10.98C46.1996 11.62 45.6036 12.048 44.8436 12.264V11.664C45.9236 11.888 46.7316 12.388 47.2676 13.164C47.8116 13.94 48.0836 14.808 48.0836 15.768C48.0836 16.8 47.8916 17.708 47.5076 18.492C47.1316 19.276 46.5556 19.892 45.7796 20.34C45.0036 20.78 44.0276 21 42.8516 21H35.1956ZM38.5076 17.928H42.5156C42.9556 17.928 43.3476 17.836 43.6916 17.652C44.0356 17.46 44.3036 17.196 44.4956 16.86C44.6956 16.516 44.7956 16.112 44.7956 15.648C44.7956 15.24 44.7116 14.876 44.5436 14.556C44.3756 14.236 44.1196 13.984 43.7756 13.8C43.4396 13.608 43.0196 13.512 42.5156 13.512H38.5076V17.928ZM38.5076 10.464H42.0596C42.4276 10.464 42.7556 10.4 43.0436 10.272C43.3316 10.144 43.5596 9.948 43.7276 9.684C43.8956 9.412 43.9796 9.064 43.9796 8.64C43.9796 8.112 43.8156 7.668 43.4876 7.308C43.1596 6.948 42.6836 6.768 42.0596 6.768H38.5076V10.464ZM57.0049 21.36C55.7249 21.36 54.5689 21.136 53.5369 20.688C52.5129 20.232 51.6689 19.584 51.0049 18.744C50.3489 17.896 49.9329 16.888 49.7569 15.72L53.1649 15.216C53.4049 16.208 53.9009 16.972 54.6529 17.508C55.4049 18.044 56.2609 18.312 57.2209 18.312C57.7569 18.312 58.2769 18.228 58.7809 18.06C59.2849 17.892 59.6969 17.644 60.0169 17.316C60.3449 16.988 60.5089 16.584 60.5089 16.104C60.5089 15.928 60.4809 15.76 60.4249 15.6C60.3769 15.432 60.2929 15.276 60.1729 15.132C60.0529 14.988 59.8809 14.852 59.6569 14.724C59.4409 14.596 59.1649 14.48 58.8289 14.376L54.3409 13.056C54.0049 12.96 53.6129 12.824 53.1649 12.648C52.7249 12.472 52.2969 12.22 51.8809 11.892C51.4649 11.564 51.1169 11.132 50.8369 10.596C50.5649 10.052 50.4289 9.368 50.4289 8.544C50.4289 7.384 50.7209 6.42 51.3049 5.652C51.8889 4.884 52.6689 4.312 53.6449 3.936C54.6209 3.56 55.7009 3.376 56.8849 3.384C58.0769 3.4 59.1409 3.604 60.0769 3.996C61.0129 4.388 61.7969 4.96 62.4289 5.712C63.0609 6.456 63.5169 7.368 63.7969 8.448L60.2689 9.048C60.1409 8.488 59.9049 8.016 59.5609 7.632C59.2169 7.248 58.8049 6.956 58.3249 6.756C57.8529 6.556 57.3569 6.448 56.8369 6.432C56.3249 6.416 55.8409 6.488 55.3849 6.648C54.9369 6.8 54.5689 7.024 54.2809 7.32C54.0009 7.616 53.8609 7.968 53.8609 8.376C53.8609 8.752 53.9769 9.06 54.2089 9.3C54.4409 9.532 54.7329 9.72 55.0849 9.864C55.4369 10.008 55.7969 10.128 56.1649 10.224L59.1649 11.04C59.6129 11.16 60.1089 11.32 60.6529 11.52C61.1969 11.712 61.7169 11.984 62.2129 12.336C62.7169 12.68 63.1289 13.136 63.4489 13.704C63.7769 14.272 63.9409 14.992 63.9409 15.864C63.9409 16.792 63.7449 17.604 63.3529 18.3C62.9689 18.988 62.4489 19.56 61.7929 20.016C61.1369 20.464 60.3929 20.8 59.5609 21.024C58.7369 21.248 57.8849 21.36 57.0049 21.36ZM73.9944 21.36C72.2664 21.36 70.7744 20.984 69.5184 20.232C68.2704 19.48 67.3064 18.428 66.6264 17.076C65.9544 15.724 65.6184 14.152 65.6184 12.36C65.6184 10.568 65.9544 8.996 66.6264 7.644C67.3064 6.292 68.2704 5.24 69.5184 4.488C70.7744 3.736 72.2664 3.36 73.9944 3.36C75.9784 3.36 77.6424 3.852 78.9864 4.836C80.3384 5.82 81.2904 7.152 81.8424 8.832L78.5544 9.744C78.2344 8.696 77.6944 7.884 76.9344 7.308C76.1744 6.724 75.1944 6.432 73.9944 6.432C72.8984 6.432 71.9824 6.676 71.2464 7.164C70.5184 7.652 69.9704 8.34 69.6024 9.228C69.2344 10.116 69.0504 11.16 69.0504 12.36C69.0504 13.56 69.2344 14.604 69.6024 15.492C69.9704 16.38 70.5184 17.068 71.2464 17.556C71.9824 18.044 72.8984 18.288 73.9944 18.288C75.1944 18.288 76.1744 17.996 76.9344 17.412C77.6944 16.828 78.2344 16.016 78.5544 14.976L81.8424 15.888C81.2904 17.568 80.3384 18.9 78.9864 19.884C77.6424 20.868 75.9784 21.36 73.9944 21.36ZM84.7247 21V3.72H87.9887V17.952H95.4287V21H84.7247ZM97.7091 6.24V3.36H100.973V6.24H97.7091ZM97.7091 21V8.04H100.973V21H97.7091ZM104.091 21V20.592L112.299 6.768H104.811V3.72H118.011V4.128L109.851 17.928H117.771V21H104.091ZM120.883 21V3.72H132.163V6.768H124.147V10.464H130.723V13.512H124.147V17.952H132.163V21H120.883Z" fill="white"/>
</svg>
