<svg width="223" height="40" viewBox="0 0 223 40" fill="none" xmlns="http://www.w3.org/2000/svg">
<path d="M13.68 35.6C11.5467 35.6 9.62 35.2267 7.9 34.48C6.19333 33.72 4.78667 32.64 3.68 31.24C2.58667 29.8267 1.89333 28.1467 1.6 26.2L7.28 25.36C7.68 27.0133 8.50667 28.2867 9.76 29.18C11.0133 30.0733 12.44 30.52 14.04 30.52C14.9333 30.52 15.8 30.38 16.64 30.1C17.48 29.82 18.1667 29.4067 18.7 28.86C19.2467 28.3133 19.52 27.64 19.52 26.84C19.52 26.5467 19.4733 26.2667 19.38 26C19.3 25.72 19.16 25.46 18.96 25.22C18.76 24.98 18.4733 24.7533 18.1 24.54C17.74 24.3267 17.28 24.1333 16.72 23.96L9.24 21.76C8.68 21.6 8.02667 21.3733 7.28 21.08C6.54667 20.7867 5.83333 20.3667 5.14 19.82C4.44667 19.2733 3.86667 18.5533 3.4 17.66C2.94667 16.7533 2.72 15.6133 2.72 14.24C2.72 12.3067 3.20667 10.7 4.18 9.42C5.15333 8.14 6.45333 7.18666 8.08 6.56C9.70667 5.93333 11.5067 5.62666 13.48 5.64C15.4667 5.66667 17.24 6.00667 18.8 6.66C20.36 7.31333 21.6667 8.26667 22.72 9.52C23.7733 10.76 24.5333 12.28 25 14.08L19.12 15.08C18.9067 14.1467 18.5133 13.36 17.94 12.72C17.3667 12.08 16.68 11.5933 15.88 11.26C15.0933 10.9267 14.2667 10.7467 13.4 10.72C12.5467 10.6933 11.74 10.8133 10.98 11.08C10.2333 11.3333 9.62 11.7067 9.14 12.2C8.67333 12.6933 8.44 13.28 8.44 13.96C8.44 14.5867 8.63333 15.1 9.02 15.5C9.40667 15.8867 9.89333 16.2 10.48 16.44C11.0667 16.68 11.6667 16.88 12.28 17.04L17.28 18.4C18.0267 18.6 18.8533 18.8667 19.76 19.2C20.6667 19.52 21.5333 19.9733 22.36 20.56C23.2 21.1333 23.8867 21.8933 24.42 22.84C24.9667 23.7867 25.24 24.9867 25.24 26.44C25.24 27.9867 24.9133 29.34 24.26 30.5C23.62 31.6467 22.7533 32.6 21.66 33.36C20.5667 34.1067 19.3267 34.6667 17.94 35.04C16.5667 35.4133 15.1467 35.6 13.68 35.6ZM41.3559 35.6C39.0359 35.6 36.9959 35.1333 35.2359 34.2C33.4759 33.2533 32.1026 31.9267 31.1159 30.22C30.1293 28.5133 29.6359 26.5067 29.6359 24.2V6.24L35.1559 6.2V24.16C35.1559 25.1067 35.3159 25.9667 35.6359 26.74C35.9559 27.5133 36.3959 28.18 36.9559 28.74C37.5293 29.3 38.1893 29.7333 38.9359 30.04C39.6959 30.3333 40.5026 30.48 41.3559 30.48C42.2359 30.48 43.0493 30.3267 43.7959 30.02C44.5559 29.7133 45.2159 29.28 45.7759 28.72C46.3359 28.16 46.7693 27.4933 47.0759 26.72C47.3959 25.9467 47.5559 25.0933 47.5559 24.16V6.2H53.0759V24.2C53.0759 26.5067 52.5826 28.5133 51.5959 30.22C50.6093 31.9267 49.2359 33.2533 47.4759 34.2C45.7159 35.1333 43.6759 35.6 41.3559 35.6ZM58.6594 35V6.2H70.1794C72.2327 6.2 73.8927 6.61333 75.1594 7.44C76.426 8.25333 77.3527 9.28 77.9394 10.52C78.526 11.76 78.8194 13.0133 78.8194 14.28C78.8194 15.8933 78.4527 17.2333 77.7194 18.3C76.9994 19.3667 76.006 20.08 74.7394 20.44V19.44C76.5394 19.8133 77.886 20.6467 78.7794 21.94C79.686 23.2333 80.1394 24.68 80.1394 26.28C80.1394 28 79.8194 29.5133 79.1794 30.82C78.5527 32.1267 77.5927 33.1533 76.2994 33.9C75.006 34.6333 73.3794 35 71.4194 35H58.6594ZM64.1794 29.88H70.8594C71.5927 29.88 72.246 29.7267 72.8194 29.42C73.3927 29.1 73.8394 28.66 74.1594 28.1C74.4927 27.5267 74.6594 26.8533 74.6594 26.08C74.6594 25.4 74.5194 24.7933 74.2394 24.26C73.9594 23.7267 73.5327 23.3067 72.9594 23C72.3994 22.68 71.6994 22.52 70.8594 22.52H64.1794V29.88ZM64.1794 17.44H70.0994C70.7127 17.44 71.2594 17.3333 71.7394 17.12C72.2194 16.9067 72.5994 16.58 72.8794 16.14C73.1594 15.6867 73.2994 15.1067 73.2994 14.4C73.2994 13.52 73.026 12.78 72.4794 12.18C71.9327 11.58 71.1394 11.28 70.0994 11.28H64.1794V17.44ZM95.0081 35.6C92.8748 35.6 90.9481 35.2267 89.2281 34.48C87.5215 33.72 86.1148 32.64 85.0081 31.24C83.9148 29.8267 83.2215 28.1467 82.9281 26.2L88.6081 25.36C89.0081 27.0133 89.8348 28.2867 91.0881 29.18C92.3415 30.0733 93.7681 30.52 95.3681 30.52C96.2615 30.52 97.1281 30.38 97.9681 30.1C98.8081 29.82 99.4948 29.4067 100.028 28.86C100.575 28.3133 100.848 27.64 100.848 26.84C100.848 26.5467 100.801 26.2667 100.708 26C100.628 25.72 100.488 25.46 100.288 25.22C100.088 24.98 99.8015 24.7533 99.4281 24.54C99.0681 24.3267 98.6081 24.1333 98.0481 23.96L90.5681 21.76C90.0081 21.6 89.3548 21.3733 88.6081 21.08C87.8748 20.7867 87.1615 20.3667 86.4681 19.82C85.7748 19.2733 85.1948 18.5533 84.7281 17.66C84.2748 16.7533 84.0481 15.6133 84.0481 14.24C84.0481 12.3067 84.5348 10.7 85.5081 9.42C86.4815 8.14 87.7815 7.18666 89.4081 6.56C91.0348 5.93333 92.8348 5.62666 94.8081 5.64C96.7948 5.66667 98.5681 6.00667 100.128 6.66C101.688 7.31333 102.995 8.26667 104.048 9.52C105.101 10.76 105.861 12.28 106.328 14.08L100.448 15.08C100.235 14.1467 99.8415 13.36 99.2681 12.72C98.6948 12.08 98.0081 11.5933 97.2081 11.26C96.4215 10.9267 95.5948 10.7467 94.7281 10.72C93.8748 10.6933 93.0681 10.8133 92.3081 11.08C91.5615 11.3333 90.9481 11.7067 90.4681 12.2C90.0015 12.6933 89.7681 13.28 89.7681 13.96C89.7681 14.5867 89.9615 15.1 90.3481 15.5C90.7348 15.8867 91.2215 16.2 91.8081 16.44C92.3948 16.68 92.9948 16.88 93.6081 17.04L98.6081 18.4C99.3548 18.6 100.181 18.8667 101.088 19.2C101.995 19.52 102.861 19.9733 103.688 20.56C104.528 21.1333 105.215 21.8933 105.748 22.84C106.295 23.7867 106.568 24.9867 106.568 26.44C106.568 27.9867 106.241 29.34 105.588 30.5C104.948 31.6467 104.081 32.6 102.988 33.36C101.895 34.1067 100.655 34.6667 99.2681 35.04C97.8948 35.4133 96.4748 35.6 95.0081 35.6ZM123.324 35.6C120.444 35.6 117.957 34.9733 115.864 33.72C113.784 32.4667 112.177 30.7133 111.044 28.46C109.924 26.2067 109.364 23.5867 109.364 20.6C109.364 17.6133 109.924 14.9933 111.044 12.74C112.177 10.4867 113.784 8.73333 115.864 7.48C117.957 6.22667 120.444 5.6 123.324 5.6C126.631 5.6 129.404 6.42 131.644 8.06C133.897 9.7 135.484 11.92 136.404 14.72L130.924 16.24C130.391 14.4933 129.491 13.14 128.224 12.18C126.957 11.2067 125.324 10.72 123.324 10.72C121.497 10.72 119.971 11.1267 118.744 11.94C117.531 12.7533 116.617 13.9 116.004 15.38C115.391 16.86 115.084 18.6 115.084 20.6C115.084 22.6 115.391 24.34 116.004 25.82C116.617 27.3 117.531 28.4467 118.744 29.26C119.971 30.0733 121.497 30.48 123.324 30.48C125.324 30.48 126.957 29.9933 128.224 29.02C129.491 28.0467 130.391 26.6933 130.924 24.96L136.404 26.48C135.484 29.28 133.897 31.5 131.644 33.14C129.404 34.78 126.631 35.6 123.324 35.6ZM141.208 35V6.2H146.648V29.92H159.048V35H141.208ZM162.848 10.4V5.6H168.288V10.4H162.848ZM162.848 35V13.4H168.288V35H162.848ZM173.484 35V34.32L187.164 11.28H174.684V6.2H196.684V6.88L183.084 29.88H196.284V35H173.484ZM201.472 35V6.2H220.272V11.28H206.912V17.44H217.872V22.52H206.912V29.92H220.272V35H201.472Z" fill="white"/>
</svg>
